<?xml version="1.0" encoding="UTF-8" standalone="no"?>
<!-- Uploaded to: SVG Repo, www.svgrepo.com, Generator: SVG Repo Mixer Tools -->

<svg
   width="38.871357"
   height="38.497185"
   viewBox="0 -1.49 14.893803 14.750437"
   version="1.1"
   id="svg57"
   sodipodi:docname="book.svg"
   xmlns:inkscape="http://www.inkscape.org/namespaces/inkscape"
   xmlns:sodipodi="http://sodipodi.sourceforge.net/DTD/sodipodi-0.dtd"
   xmlns="http://www.w3.org/2000/svg"
   xmlns:svg="http://www.w3.org/2000/svg">
  <sodipodi:namedview
     id="namedview57"
     pagecolor="#ffffff"
     bordercolor="#000000"
     borderopacity="0.25"
     inkscape:showpageshadow="2"
     inkscape:pageopacity="0.0"
     inkscape:pagecheckerboard="0"
     inkscape:deskcolor="#d1d1d1">
    <inkscape:page
       x="0"
       y="0"
       width="14.893803"
       height="14.750437"
       id="page2"
       margin="0"
       bleed="0" />
  </sodipodi:namedview>
  <defs
     id="defs1">
    <style
       id="style1">.a{fill:#ffffff;}.b{fill:#5199d1;}.c{fill:#211715;}.d{fill:#7abee6;}</style>
  </defs>
  <g
     id="g57"
     transform="matrix(0.04859387,0,0,0.04859387,-7.4929812e-4,-1.4899953)"
     inkscape:export-filename="book.svg"
     inkscape:export-xdpi="96"
     inkscape:export-ydpi="96">
    <path
       class="a"
       d="m 304.418,221.97 c -0.017,-11.952 -0.077,-36.41 -0.077,-45.1 0,0 0,-0.121 0.006,-0.356 -53.9,-31.01 -135.061,-77.919 -171.922,-99.254 -31.213,18.054 -94.031,54.353 -130.373,75.23 0,10.137 0.074,40.174 0.068,49.085 33.15,19.2 119.957,69.372 173.325,100.058 37.885,-21.778 99.829,-57.575 128.978,-74.447 v -0.459 c 0,-1.163 -0.002,-2.791 -0.005,-4.757 z"
       id="path1" />
    <path
       class="b"
       d="M 131.706,77.672 C 100.37,95.8 38.567,131.512 2.445,152.264 c 27.372,15.853 126.347,73.071 172.227,99.385 33.5,-19.2 106.859,-61.579 129.669,-74.783 0,0 0,-0.121 0.006,-0.356 C 250.447,145.5 169.286,98.591 132.425,77.256 Z"
       id="path2" />
    <path
       class="c"
       d="m 306.418,221.97 q -0.017,-12.1 -0.046,-24.2 c -0.014,-7.08 -0.18,-14.18 -0.025,-21.259 a 2,2 0 0 0 -0.99,-1.727 q -35.7,-20.539 -71.365,-41.138 -35.376,-20.42 -70.736,-40.866 -14.913,-8.622 -29.822,-17.25 a 2.022,2.022 0 0 0 -2.019,0 q -23.761,13.748 -47.534,27.477 -27.843,16.083 -55.7,32.141 -13.564,7.815 -27.137,15.616 a 2.011,2.011 0 0 0 -0.99,1.727 q 0,17.325 0.052,34.651 0.008,4.278 0.013,8.555 a 38.656,38.656 0 0 0 0.039,6.145 c 0.23,1.362 1.723,1.905 2.8,2.531 l 2.742,1.584 6.032,3.491 Q 26.9,218.227 42.08,227 q 18.662,10.79 37.328,21.569 19.842,11.46 39.687,22.909 19.078,11.005 38.164,22 c 5.65,3.254 11.22,6.807 17.015,9.792 1.709,0.88 3.314,-0.559 4.778,-1.4 l 4.2,-2.414 q 4.42,-2.543 8.84,-5.088 19.689,-11.339 39.363,-22.7 19.755,-11.4 39.5,-22.815 16.167,-9.344 32.33,-18.7 c 1.141,-0.661 2.865,-1.267 3.1,-2.705 a 34.234,34.234 0 0 0 0.031,-5.482 c 0,-2.574 -4,-2.579 -4,0 q 0,2.607 0,5.216 l 0.99,-1.727 q -22.851,13.227 -45.715,26.433 -27.7,16 -55.409,31.978 -13.923,8.025 -27.854,16.036 h 2.019 Q 140.004,278.948 103.604,257.92 67.646,237.164 31.7,216.375 17.411,208.115 3.13,199.848 l 0.99,1.727 C 4.128,188.261 4.079,174.947 4.06,161.633 Q 4.053,157.061 4.052,152.49 l -0.991,1.727 q 25.616,-14.715 51.2,-29.489 27.339,-15.777 54.673,-31.577 12.252,-7.083 24.5,-14.169 h -2.019 q 29.592,17.129 59.2,34.231 37.073,21.42 74.163,42.811 19.275,11.115 38.561,22.213 l -0.991,-1.727 c -0.155,7.079 0.011,14.179 0.025,21.259 q 0.024,12.1 0.046,24.2 c 0.003,2.574 4.003,2.579 3.999,0.001 z"
       id="path3" />
    <path
       class="c"
       d="m 173.07,251.515 q 0,20.736 0.072,41.472 0.007,4.194 0.01,8.389 c 0,2.574 4,2.578 4,0 0,-13.5 -0.05,-27 -0.072,-40.5 q -0.008,-4.683 -0.01,-9.366 c 0,-2.574 -4,-2.578 -4,0 z"
       id="path4" />
    <path
       class="c"
       d="m 3.431,155.137 q 12.11,7.017 24.226,14.023 17.038,9.855 34.083,19.7 19.348,11.18 38.7,22.349 19.039,10.988 38.085,21.96 16.109,9.279 32.23,18.536 l 3.306,1.9 c 2.236,1.283 4.254,-2.172 2.018,-3.454 q -15.582,-8.934 -31.146,-17.9 -18.829,-10.842 -37.647,-21.7 Q 87.828,199.323 68.376,188.086 50.91,177.986 33.444,167.886 20.582,160.446 7.723,153 L 5.45,151.683 c -2.232,-1.293 -4.248,2.163 -2.019,3.454 z"
       id="path5" />
    <path
       class="c"
       d="m 175.093,266.638 q -13.441,-7.707 -26.865,-15.444 -16.377,-9.43 -32.745,-18.877 Q 98.6,222.576 81.724,212.826 66.488,204.026 51.256,195.217 40.09,188.76 28.925,182.3 27.933,181.724 26.94,181.15 c -2.232,-1.293 -4.248,2.162 -2.019,3.454 q 10.509,6.087 21.023,12.165 14.86,8.6 29.723,17.181 16.79,9.7 33.584,19.393 16.566,9.559 33.138,19.108 13.9,8.01 27.822,16 l 2.863,1.642 c 2.237,1.282 4.254,-2.173 2.019,-3.454 z"
       id="path6" />
    <path
       class="c"
       d="m 164.115,276.518 q -13.019,-7.465 -26,-15 c -2.232,-1.292 -4.248,2.163 -2.019,3.454 q 12.987,7.522 26,15 c 2.237,1.283 4.254,-2.172 2.019,-3.454 z"
       id="path7" />
    <path
       class="d"
       d="m 249.423,264.6 c -4.618,2.652 -19.594,11.3 -26.406,15.225 -6.573,-3.775 -18.231,-10.493 -26.936,-15.517 8.226,-4.732 17.274,-9.942 26.426,-15.225 8.934,5.155 20.665,11.926 26.916,15.517 z"
       id="path8" />
    <path
       class="c"
       d="m 196.081,266.305 h 0.01 l -1.009,-0.273 q 12.546,7.256 25.113,14.476 a 8.03,8.03 0 0 0 2.556,1.278 c 1,0.135 1.928,-0.612 2.756,-1.09 l 4.73,-2.726 10.752,-6.2 q 4.72,-2.724 9.443,-5.442 a 2.019,2.019 0 0 0 0,-3.454 q -13.471,-7.734 -26.915,-15.517 c -2.234,-1.29 -4.25,2.166 -2.019,3.454 q 13.452,7.767 26.915,15.517 v -3.458 q -13.215,7.59 -26.4,15.225 h 2.018 q -6.6,-3.792 -13.2,-7.6 -3.7,-2.13 -7.4,-4.264 l -3.672,-2.121 c -1.027,-0.593 -2.463,-1.809 -3.677,-1.809 -2.574,0 -2.578,4 0,4 z"
       id="path9" />
    <path
       class="c"
       d="m 286.81,209.632 q -18.458,10.689 -36.931,21.348 -24.841,14.343 -49.7,28.659 -12.856,7.4 -25.721,14.785 c -2.234,1.279 -0.221,4.736 2.019,3.454 q 23.758,-13.6 47.456,-27.312 23.481,-13.537 46.948,-27.1 8.974,-5.187 17.947,-10.381 c 2.227,-1.29 0.215,-4.748 -2.019,-3.454 z"
       id="path10" />
    <path
       class="c"
       d="m 175.9,253.25 q 26.069,-14.942 52.086,-29.973 28.068,-16.185 56.119,-32.4 10.623,-6.139 21.243,-12.285 c 2.227,-1.289 0.215,-4.747 -2.019,-3.454 q -22.163,12.829 -44.342,25.629 -29.14,16.827 -58.3,33.622 -13.4,7.713 -26.807,15.406 c -2.233,1.28 -0.221,4.737 2.019,3.454 z"
       id="path11" />
    <path
       class="a"
       d="m 262.249,148.658 c -0.013,-8.922 -0.058,-27.182 -0.058,-33.672 0,0 0,-0.091 0.005,-0.266 -40.238,-23.15 -100.831,-58.17 -128.349,-74.1 -23.3,13.482 -70.2,40.58 -97.331,56.166 0,7.568 0.056,29.992 0.051,36.644 24.749,14.33 89.555,51.791 129.4,74.7 28.284,-16.258 74.528,-42.983 96.289,-55.578 v -0.343 c -0.004,-0.868 -0.005,-2.083 -0.007,-3.551 z"
       id="path12" />
    <path
       class="d"
       d="m 132.1,41.632 c -23.83,13.786 -69.114,39.95 -95.584,55.156 0,7.568 0.056,29.992 0.051,36.644 10.763,6.232 29.1,16.839 49.67,28.722 -0.015,-9.132 -0.054,-29.307 -0.058,-36.983 41.833,-24.166 77.077,-44.545 96.955,-56.052 -19.693,-11.377 -37.516,-21.684 -49.287,-28.5 z"
       id="path13" />
    <path
       class="c"
       d="m 264.249,148.658 c -0.017,-11.3 -0.3,-22.637 -0.053,-33.938 a 2,2 0 0 0 -0.991,-1.727 Q 236.561,97.663 209.94,82.293 183.534,67.051 157.14,51.793 146,45.342 134.856,38.9 a 2.022,2.022 0 0 0 -2.019,0 Q 115.073,49.173 97.3,59.438 76.566,71.414 55.822,83.37 45.667,89.221 35.507,95.061 a 2.012,2.012 0 0 0 -0.991,1.727 q 0,13.088 0.04,26.174 0.006,3.168 0.009,6.336 c 0,1.423 -0.307,3.282 0.074,4.666 0.407,1.478 3.19,2.51 4.45,3.24 l 4.6,2.664 q 25.283,14.63 50.579,29.237 29.014,16.757 58.045,33.482 l 6.622,3.812 3.049,1.754 a 24.646,24.646 0 0 0 3.205,1.806 c 1.32,0.511 2.554,-0.546 3.655,-1.179 l 3.327,-1.914 q 3.364,-1.935 6.727,-3.872 14.649,-8.436 29.29,-16.889 26.814,-15.475 53.612,-30.982 c 1.092,-0.632 2.346,-1.125 2.448,-2.57 0.091,-1.285 0,-2.608 0,-3.9 0,-2.573 -4,-2.578 -4,0 q 0,1.947 0,3.9 l 0.991,-1.727 q -17.022,9.852 -34.054,19.689 -20.719,11.972 -41.45,23.923 -10.391,5.988 -20.785,11.967 h 2.019 Q 139.796,190.779 112.655,175.105 85.84,159.623 59.035,144.12 48.304,137.92 37.577,131.705 l 0.99,1.727 c 0.006,-9.911 -0.03,-19.822 -0.045,-29.734 q 0,-3.454 -0.006,-6.91 l -0.99,1.727 q 19.149,-11 38.273,-22.046 20.362,-11.748 40.713,-23.513 9.174,-5.3 18.344,-10.607 h -2.019 q 22.086,12.783 44.184,25.551 27.671,15.988 55.355,31.954 14.4,8.3 28.81,16.6 l -0.99,-1.727 c -0.248,11.3 0.036,22.635 0.053,33.938 0.004,2.567 4.004,2.572 4,-0.007 z"
       id="path14" />
    <path
       class="c"
       d="m 163.684,170.715 c 0,8.464 0.06,16.927 0.061,25.391 0,2.573 4,2.578 4,0 0,-8.464 -0.06,-16.927 -0.061,-25.391 0,-2.573 -4,-2.578 -4,0 z"
       id="path15" />
    <path
       class="c"
       d="M 167.078,169.479 Q 144.311,156.425 121.592,143.29 97.081,129.148 72.583,114.981 63.304,109.616 54.028,104.244 c -2.231,-1.292 -4.248,2.163 -2.019,3.454 q 19.355,11.211 38.723,22.394 25.449,14.7 50.913,29.378 11.7,6.741 23.414,13.463 c 2.237,1.283 4.254,-2.172 2.019,-3.454 z"
       id="path16" />
    <path
       class="c"
       d="m 166.56,172.448 q 16.453,-9.429 32.875,-18.917 17.652,-10.18 35.295,-20.377 6.756,-3.9 13.509,-7.813 c 2.228,-1.289 0.216,-4.747 -2.018,-3.454 q -13.989,8.1 -27.988,16.177 -18.321,10.579 -36.655,21.14 -8.516,4.9 -17.037,9.79 c -2.233,1.28 -0.22,4.738 2.019,3.454 z"
       id="path17" />
    <path
       class="c"
       d="m 87.3,126.831 q 21.956,-12.682 43.907,-25.371 17.827,-10.3 35.652,-20.615 7.624,-4.41 15.247,-8.823 c 2.227,-1.289 0.216,-4.747 -2.019,-3.454 Q 165.348,77.1 150.6,85.629 q -19.836,11.47 -39.675,22.934 -12.82,7.408 -25.64,14.814 c -2.229,1.288 -0.217,4.745 2.018,3.454 z"
       id="path18" />
    <path
       class="c"
       d="m 84.174,125.153 c 0.013,11.343 0.061,22.686 0.062,34.029 0,2.574 4,2.578 4,0 0,-11.343 -0.049,-22.686 -0.062,-34.029 0,-2.573 -4,-2.578 -4,0 z"
       id="path19" />
    <path
       class="b"
       d="m 147.3,125.829 a 15.793,15.793 0 0 1 -1.6,6.165 c -1.986,3.9 -5.818,6.569 -9.853,8.269 -4.035,1.7 -4.613,1.258 -8.788,2.575 -3.255,1.028 -6.663,2.507 -8.058,5.8 a 19.236,19.236 0 0 0 -1.031,5.231 c -0.3,6.748 -0.246,13.766 -0.33,20.711 a 2.279,2.279 0 0 1 -1.57,2.19 32.153,32.153 0 0 1 -14.655,0.781 2.925,2.925 0 0 1 -1.3,-0.873 3.959,3.959 0 0 1 -1.1,-1.831 c -0.376,-3.152 -0.557,-6.188 -0.664,-9.228 -3.493,0.776 -7.485,2.116 -11.2,1.209 -2.583,-0.63 -5,-2.6 -5.4,-5.229 l -0.328,-2.171 c -0.577,-10.62 -1.153,-9.283 -1.73,-19.9 -0.194,-3.573 -0.35,-7.341 1.282,-10.526 a 17.826,17.826 0 0 1 5.664,-5.909 69.03,69.03 0 0 1 14.464,-8.107 c 0,0 39.516,9.479 46.197,10.843 z"
       id="path20" />
    <path
       class="a"
       d="m 139.221,129.388 c 2.3,-1.288 5.263,-2.738 8.123,-4.452 4.746,-2.84 9.258,-6.429 10.191,-11.246 a 20.126,20.126 0 0 0 -0.03,-6.288 c -0.913,-7.372 -2.657,-16.782 -7.251,-22.847 -2.8,-3.711 -7.22,-8.5 -11.53,-10.708 0,0 -7.477,-3.62 -14.741,-4.094 -11.662,-0.76 -17.63,4.211 -17.63,4.211 a 35.256,35.256 0 0 0 -13.2,20.8 l -2.036,11.716 -0.735,4.228 z"
       id="path21" />
    <path
       class="a"
       d="m 92.472,187.1 a 7.359,7.359 0 0 1 1.429,-6.02 18.158,18.158 0 0 1 5.436,-4.375 c 2.1,1.644 10.632,1.962 16.738,0.07 a 2.155,2.155 0 0 0 0.583,-0.281 c 0.075,0.712 0.123,1.153 0.123,1.153 0.635,5.8 -2.878,8.132 -5.108,9.459 a 33.619,33.619 0 0 1 -8.5,3.578 13.9,13.9 0 0 1 -5.547,0.544 A 6.453,6.453 0 0 1 93,188.377 4.975,4.975 0 0 1 92.472,187.1 Z"
       id="path22" />
    <path
       class="a"
       d="m 74.609,174.532 a 8.013,8.013 0 0 1 1.143,-2.133 19.283,19.283 0 0 1 5.892,-4.614 9.908,9.908 0 0 1 3.808,-1.581 8.118,8.118 0 0 0 1.708,0.628 c 3.715,0.907 7.706,-0.432 11.2,-1.208 0.075,2.19 0.191,4.379 0.39,6.61 l -1.569,0.259 c 0.117,2.5 -2.1,4.451 -4.251,5.73 a 32.523,32.523 0 0 1 -8.219,3.459 13.348,13.348 0 0 1 -5.363,0.52 6.2,6.2 0 0 1 -4.469,-2.752 5.834,5.834 0 0 1 -0.27,-4.918 z"
       id="path23" />
    <path
       class="c"
       d="m 114.781,177.646 a 7.173,7.173 0 0 1 -2.6,6.744 27.806,27.806 0 0 1 -9.546,4.365 c -2.774,0.734 -8.287,1.217 -8.341,-3.036 -0.048,-3.8 3.874,-6 6.706,-7.677 2.215,-1.308 0.2,-4.768 -2.019,-3.454 -3.347,1.979 -6.708,4.195 -8.125,8 a 7.646,7.646 0 0 0 3.415,9.613 c 3.843,2.013 8.374,0.934 12.235,-0.467 a 28.608,28.608 0 0 0 8.717,-4.684 10.7,10.7 0 0 0 3.557,-9.4 2.054,2.054 0 0 0 -2,-2 2.014,2.014 0 0 0 -2,2 z"
       id="path24" />
    <path
       class="c"
       d="m 84.654,164.313 a 16.007,16.007 0 0 0 -4.947,2.3 23.828,23.828 0 0 0 -4.18,3.047 c -2.462,2.346 -4.081,6.009 -2.991,9.4 1.152,3.586 4.914,5.327 8.474,5.234 3.839,-0.1 7.774,-1.632 11.153,-3.361 3.325,-1.7 7.049,-4.282 7.021,-8.44 -0.017,-2.573 -4.017,-2.578 -4,0 0.02,2.939 -4.316,4.71 -6.5,5.691 a 29.355,29.355 0 0 1 -4.9,1.674 8.873,8.873 0 0 1 -5.219,0.092 c -2.89,-1.085 -2.818,-4.228 -1.172,-6.419 a 13.333,13.333 0 0 1 3.723,-3.089 14.635,14.635 0 0 1 4.607,-2.272 c 2.521,-0.513 1.454,-4.37 -1.063,-3.857 z"
       id="path25" />
    <path
       class="c"
       d="m 100.579,113.06 a 70.434,70.434 0 0 0 -15.936,9.055 17.465,17.465 0 0 0 -5.743,6.655 20.213,20.213 0 0 0 -1.288,8.816 c 0.145,4.315 0.56,8.6 1.078,12.882 0.468,3.871 0.445,7.814 1.14,11.65 a 8.57,8.57 0 0 0 5.238,6.095 c 3.36,1.444 7.061,0.907 10.516,0.126 2.51,-0.568 1.448,-4.425 -1.063,-3.857 -3.733,0.844 -10.033,1.5 -10.863,-3.615 -0.547,-3.376 -0.543,-6.857 -0.955,-10.287 -0.432,-3.6 -0.786,-7.185 -0.987,-10.805 a 26.637,26.637 0 0 1 0.258,-7.65 11.423,11.423 0 0 1 4.126,-6.085 59.884,59.884 0 0 1 15.547,-9.123 2.067,2.067 0 0 0 1.4,-2.461 2.012,2.012 0 0 0 -2.46,-1.4 z"
       id="path26" />
    <path
       class="c"
       d="m 100.164,132.346 c -3.427,2.382 -4.287,6.117 -4.349,10.043 -0.063,3.982 0.149,7.963 0.273,11.942 0.163,5.219 0.14,10.447 0.49,15.659 0.162,2.415 -0.015,5.366 1.518,7.367 1.471,1.92 3.274,2.323 5.555,2.563 a 32.691,32.691 0 0 0 6.583,-0.023 25.468,25.468 0 0 0 6.682,-1.313 c 2.61,-1.017 2.724,-3.519 2.748,-5.939 0.026,-2.75 0.036,-5.5 0.063,-8.248 0.026,-2.719 0.067,-5.439 0.157,-8.157 a 21.132,21.132 0 0 1 0.869,-6.581 c 1.335,-3.616 6.074,-4.806 9.41,-5.611 4.326,-1.044 8.49,-2.4 12.092,-5.128 a 17.661,17.661 0 0 0 7.089,-13.984 c 0.1,-2.575 -3.9,-2.57 -4,0 a 13.521,13.521 0 0 1 -5.209,10.6 24.277,24.277 0 0 1 -9.661,4.338 c -3.565,0.792 -7.351,1.8 -10.27,4.1 -3.241,2.55 -4.041,6.447 -4.248,10.373 -0.263,4.957 -0.232,9.935 -0.266,14.9 q -0.012,1.821 -0.029,3.641 a 6.473,6.473 0 0 1 -0.019,1.7 c -0.113,0.321 -0.066,0.2 -0.277,0.316 a 10.29,10.29 0 0 1 -2.864,0.679 29.023,29.023 0 0 1 -3.068,0.386 32,32 0 0 1 -5.782,-0.046 4.833,4.833 0 0 1 -1.833,-0.38 c -0.931,-0.554 -0.906,-1.627 -1,-2.559 -0.458,-4.709 -0.531,-9.44 -0.625,-14.167 -0.09,-4.491 -0.319,-8.977 -0.379,-13.469 -0.022,-1.69 -0.05,-3.4 0.08,-5.083 0.011,-0.139 0.022,-0.279 0.036,-0.419 0.041,-0.4 -0.026,0.122 0.011,-0.066 a 9.215,9.215 0 0 1 0.433,-1.563 5.218,5.218 0 0 1 1.805,-2.415 c 2.1,-1.459 0.1,-4.928 -2.019,-3.453 z"
       id="path27" />
    <path
       class="c"
       d="M 105.344,72.237 A 37.579,37.579 0 0 0 91.227,94.228 c -0.535,2.511 3.32,3.584 3.857,1.063 a 33.434,33.434 0 0 1 12.279,-19.6 2.065,2.065 0 0 0 0.717,-2.736 2.013,2.013 0 0 0 -2.736,-0.718 z"
       id="path28" />
    <path
       class="a"
       d="m 93.073,114.983 c -2.224,-1.387 -3.149,-3.73 -3.512,-6.217 -0.407,-2.788 0.07,-6.337 4.127,-7.351 a 5.776,5.776 0 0 1 4.225,0.789 7.917,7.917 0 0 1 3.891,7.682 c -0.274,3.305 -3.391,6.336 -6.673,5.857 a 5.3,5.3 0 0 1 -2.058,-0.76 z"
       id="path29" />
    <path
       class="c"
       d="m 94.082,113.256 a 4.789,4.789 0 0 1 -1.2,-1.091 c 0.179,0.224 -0.08,-0.121 -0.118,-0.177 q -0.142,-0.215 -0.27,-0.438 c -0.068,-0.12 -0.133,-0.241 -0.195,-0.364 0,0 -0.247,-0.563 -0.135,-0.281 a 10.884,10.884 0 0 1 -0.527,-1.825 c -0.036,-0.175 -0.068,-0.35 -0.1,-0.527 -0.023,-0.136 -0.076,-0.619 -0.018,-0.083 -0.027,-0.253 -0.053,-0.5 -0.066,-0.759 a 11.088,11.088 0 0 1 0.031,-1.4 c 0.028,-0.375 0,0 -0.01,0.067 0.026,-0.127 0.046,-0.256 0.075,-0.383 0.062,-0.281 0.152,-0.548 0.241,-0.821 -0.145,0.45 0.086,-0.167 0.161,-0.3 0.075,-0.133 0.481,-0.637 0.185,-0.309 a 7.33,7.33 0 0 1 0.518,-0.525 c 0.232,-0.209 -0.39,0.224 0.072,-0.053 0.155,-0.092 0.3,-0.193 0.464,-0.279 0.111,-0.059 0.224,-0.117 0.339,-0.167 -0.287,0.125 0.028,0 0.076,-0.018 a 8.126,8.126 0 0 1 0.907,-0.24 c -0.447,0.076 0.185,0.012 0.35,0.015 0.165,0.003 0.33,0.012 0.494,0.03 0.141,0.014 0.135,0.014 -0.017,0 0.106,0.018 0.211,0.041 0.314,0.067 a 4.093,4.093 0 0 1 1.6,0.774 c 0.023,0.016 0.3,0.226 0.1,0.065 0.108,0.083 0.212,0.172 0.315,0.262 a 8.939,8.939 0 0 1 0.78,0.765 5.348,5.348 0 0 1 1.266,2.531 c -0.007,-0.033 0.112,0.588 0.068,0.309 -0.044,-0.279 0.034,0.362 0.031,0.326 a 8.924,8.924 0 0 1 0.019,0.925 c 0,0.178 -0.014,0.355 -0.029,0.532 0.007,-0.087 0.073,-0.34 -0.01,0.072 a 8.048,8.048 0 0 1 -0.268,0.979 c -0.2,0.6 0.086,-0.15 -0.078,0.179 -0.09,0.184 -0.187,0.363 -0.292,0.539 a 2.539,2.539 0 0 1 -0.474,0.661 6.713,6.713 0 0 1 -0.729,0.7 c 0.216,-0.177 -0.041,0.027 -0.077,0.05 -0.168,0.108 -0.334,0.218 -0.51,0.314 a 3.428,3.428 0 0 1 -1.436,0.41 3.112,3.112 0 0 1 -1.848,-0.536 2.0004048,2.0004048 0 0 0 -2.019,3.454 c 3.7,2.2 8,0.706 10.326,-2.693 a 9.511,9.511 0 0 0 -0.039,-10.192 c -1.981,-3.046 -5.7,-5.311 -9.4,-4.283 a 7.481,7.481 0 0 0 -5.485,7.081 c -0.247,3.835 1.314,7.961 4.6,10.087 a 2.0004048,2.0004048 0 1 0 2.019,-3.454 z"
       id="path30" />
    <path
       class="c"
       d="m 105.936,88.593 v 22.294 c 0,2.573 4,2.578 4,0 V 88.593 c 0,-2.573 -4,-2.578 -4,0 z"
       id="path31" />
    <path
       class="a"
       d="m 107.241,114.679 c -6.151,1.042 -12.429,3.442 -21.5,4.947 5.591,2.695 16.106,7.872 26.161,12.9 8.737,-3.557 11.224,-4.177 16.692,-6.274 -9.148,-4.719 -21.335,-11.576 -21.353,-11.573 z"
       id="path32" />
    <path
       class="c"
       d="m 106.71,112.75 c -7.252,1.256 -14.23,3.722 -21.5,4.948 -1.664,0.28 -1.971,2.935 -0.477,3.655 5.911,2.852 11.8,5.759 17.674,8.675 q 2.647,1.314 5.291,2.632 c 0.924,0.461 1.843,0.932 2.771,1.383 a 3.157,3.157 0 0 0 3.079,-0.036 q 4.138,-1.668 8.332,-3.189 c 2.418,-0.87 4.845,-1.716 7.246,-2.634 1.479,-0.566 2.138,-2.8 0.478,-3.656 -4.738,-2.449 -9.427,-4.992 -14.1,-7.56 -2.408,-1.324 -4.776,-2.823 -7.252,-4.016 -2.309,-1.113 -4.34,2.335 -2.019,3.454 2.476,1.193 4.844,2.692 7.253,4.016 4.673,2.568 9.362,5.111 14.1,7.56 l 0.478,-3.655 c -5.555,2.124 -11.178,4.033 -16.691,6.274 l 1.541,0.2 c -8.7,-4.35 -17.4,-8.678 -26.161,-12.9 l -0.478,3.656 c 7.27,-1.226 14.247,-3.691 21.5,-4.948 a 2.016,2.016 0 0 0 1.4,-2.46 2.046,2.046 0 0 0 -2.465,-1.399 z"
       id="path33" />
    <path
       class="a"
       d="m 123.346,123.941 c 0.59,-4.779 5.592,-8.765 12.015,-6 0.97,2.982 2.655,7.49 3.691,11.258 -1.412,1.142 -2.633,2.134 -2.633,2.134 -2.066,2.494 -6.63,2.045 -9.112,0.535 a 8.248,8.248 0 0 1 -3.961,-7.927 z"
       id="path34" />
    <path
       class="c"
       d="m 134.669,115.558 a 10.875,10.875 0 0 0 -8.109,0.606 9.931,9.931 0 0 0 -4.665,5.356 c -1.98,5.2 1.152,11.056 6.246,12.922 3.117,1.141 7.38,0.975 9.692,-1.7 a 2.049,2.049 0 0 0 0,-2.828 2.018,2.018 0 0 0 -2.828,0 c -0.1,0.111 -0.2,0.212 -0.3,0.321 -0.066,0.074 -0.369,0.316 -0.058,0.08 a 5.244,5.244 0 0 1 -0.665,0.405 c -0.1,0.053 -0.449,0.166 -0.085,0.043 -0.113,0.038 -0.223,0.078 -0.337,0.112 a 6.626,6.626 0 0 1 -0.88,0.2 c 0.4,-0.064 0,0 -0.107,0 -0.155,0.006 -0.309,0.018 -0.464,0.021 -0.281,0 -0.56,-0.014 -0.84,-0.026 -0.1,0 -0.51,-0.051 -0.12,0 -0.123,-0.017 -0.246,-0.038 -0.368,-0.061 a 9.5,9.5 0 0 1 -0.984,-0.233 c -0.257,-0.075 -0.509,-0.164 -0.76,-0.257 0.386,0.143 -0.264,-0.127 -0.372,-0.185 a 6.581,6.581 0 0 1 -0.663,-0.416 c -0.487,-0.338 0.161,0.14 -0.106,-0.082 -0.138,-0.114 -0.274,-0.23 -0.406,-0.35 q -0.288,-0.263 -0.555,-0.546 c -0.076,-0.082 -0.151,-0.165 -0.225,-0.25 0,0 -0.343,-0.419 -0.156,-0.179 0.187,0.24 -0.129,-0.184 -0.131,-0.187 -0.06,-0.087 -0.119,-0.175 -0.175,-0.264 a 7.953,7.953 0 0 1 -0.419,-0.741 c -0.056,-0.113 -0.109,-0.227 -0.161,-0.342 0.027,0.061 0.144,0.4 0.032,0.063 -0.076,-0.233 -0.16,-0.461 -0.224,-0.7 -0.05,-0.187 -0.09,-0.375 -0.129,-0.564 -0.007,-0.036 -0.075,-0.5 -0.031,-0.157 0.044,0.343 -0.01,-0.163 -0.014,-0.228 a 10.554,10.554 0 0 1 0.027,-1.331 c -0.026,0.449 -0.011,0.068 0.033,-0.155 a 8.044,8.044 0 0 1 0.2,-0.8 c 0.055,-0.176 0.124,-0.346 0.182,-0.521 0.14,-0.425 -0.164,0.268 -0.012,0.033 0.06,-0.094 0.1,-0.211 0.151,-0.311 q 0.142,-0.276 0.306,-0.541 c 0.071,-0.115 0.549,-0.764 0.2,-0.332 a 8.389,8.389 0 0 1 0.849,-0.919 c 0.076,-0.069 0.556,-0.463 0.334,-0.294 -0.261,0.2 0.115,-0.077 0.139,-0.093 0.119,-0.077 0.236,-0.157 0.358,-0.231 0.2,-0.123 0.414,-0.238 0.628,-0.342 0.025,-0.012 0.46,-0.2 0.158,-0.077 -0.285,0.118 0.182,-0.063 0.24,-0.082 a 7.626,7.626 0 0 1 0.788,-0.226 c 0.176,-0.041 0.871,-0.13 0.375,-0.084 a 12.728,12.728 0 0 1 1.779,-0.018 c 0.086,0 0.392,0.047 -0.023,-0.011 0.174,0.024 0.347,0.055 0.519,0.089 0.359,0.071 0.712,0.165 1.063,0.27 a 2.0004011,2.0004011 0 1 0 1.063,-3.857 z"
       id="path35" />
    <path
       class="c"
       d="m 140.793,101.53 c -0.076,-0.534 -0.03,-0.233 0,0.079 0.022,0.262 0.043,0.523 0.062,0.785 0.053,0.749 0.093,1.5 0.128,2.249 0.075,1.641 0.13,3.288 0.091,4.932 -0.007,0.321 -0.017,0.643 -0.039,0.964 -0.012,0.187 -0.024,0.9 -0.022,0.364 0,0.529 -0.181,0 0.074,-0.043 -0.281,0.052 -0.819,0.627 -1.112,0.863 -2.011,1.624 -3.965,3.316 -5.98,4.934 a 1.945,1.945 0 0 0 -0.514,1.946 c 1.249,3.789 2.662,7.524 3.716,11.376 a 2.023,2.023 0 0 0 2.938,1.195 c 8.293,-4.639 19.882,-9.366 19.636,-20.62 a 65.372,65.372 0 0 0 -2.318,-14.635 35.353,35.353 0 0 0 -5.68,-12.653 c -3.28,-4.3 -7.191,-8.592 -12.034,-11.146 -2.276,-1.2 -4.3,2.251 -2.019,3.454 3.864,2.038 7.016,5.321 9.762,8.665 a 30.465,30.465 0 0 1 5.578,10.824 74.983,74.983 0 0 1 2.479,12.581 c 0.286,2.381 0.512,4.948 -0.422,7.222 a 13.139,13.139 0 0 1 -3.494,4.572 c -3.931,3.564 -8.923,5.718 -13.507,8.282 l 2.938,1.2 c -1.054,-3.852 -2.467,-7.588 -3.716,-11.377 l -0.515,1.946 c 2.155,-1.73 4.238,-3.549 6.4,-5.27 1.5,-1.191 1.765,-2.354 1.838,-4.189 a 53.6,53.6 0 0 0 -0.406,-9.56 2.013,2.013 0 0 0 -2.46,-1.4 2.054,2.054 0 0 0 -1.4,2.461 z"
       id="path36" />
    <path
       class="a"
       d="m 140.522,92.806 a 0.873,0.873 0 0 1 0.156,0.57 c -0.079,0.326 -0.457,0.457 -0.783,0.522 a 65.819,65.819 0 0 1 -9.725,2.272 0.8,0.8 0 0 1 -0.625,-0.156 0.762,0.762 0 0 1 -0.157,-0.509 c -0.247,-3.011 -0.705,-8.157 -1.06,-10.54 a 28.924,28.924 0 0 1 -17.875,-3.784 c -1.57,-1 -3.692,-3.017 -4.1,-4.833 a 4.3,4.3 0 0 1 1.934,-4.292 c 1.31,-0.929 6.269,-0.776 5.164,-0.668 a 19.529,19.529 0 0 0 4.509,3.427 20.363,20.363 0 0 0 21.76,-1.679 l 0.983,0.3 a 5.059,5.059 0 0 1 3.084,3.959 2.678,2.678 0 0 1 -1.125,2.277 28.884,28.884 0 0 1 -7.428,3.818 47.337,47.337 0 0 1 5.261,9.266 z"
       id="path37" />
    <path
       class="a"
       d="m 107.092,54.433 a 23.034,23.034 0 0 0 5.485,16.041 19.877,19.877 0 0 0 27.923,2.026 11.488,11.488 0 0 0 7.635,-2.39 7.284,7.284 0 0 0 2.771,-6.5 5.294,5.294 0 0 0 -3.085,-3.9 18.98,18.98 0 0 0 -6.568,-22.174 c -8.9,-6.321 -21.474,-5.451 -28.785,2.866 a 22.461,22.461 0 0 0 -5.376,14.031 z"
       id="path38" />
    <path
       class="a"
       d="m 109.989,43.9 a 22.736,22.736 0 0 0 -2.6,7.5 38.071,38.071 0 0 0 15.638,-1.885 1.083,1.083 0 0 1 0.861,0.074 c 0.631,0.355 -0.131,1.733 -0.487,2.363 2.24,0.631 7.725,-0.4 10.149,-1.732 1.348,3.276 2.723,4.983 5.365,6.22 l 7.092,2.825 a 5.059,5.059 0 0 1 1.813,0.445 18.994,18.994 0 0 0 -6.574,-22.177 c -8.9,-6.321 -21.474,-5.451 -28.785,2.866 a 20.56,20.56 0 0 0 -2.472,3.501 z"
       id="path39" />
    <path
       class="c"
       d="M 150.058,59.4 A 21.143,21.143 0 0 0 143.052,36.409 24.253,24.253 0 0 0 119.438,33.1 c -8.2,3.365 -13.342,11.021 -14.234,19.728 a 24.63,24.63 0 0 0 10.012,22.638 c 8.186,5.717 20.023,4.711 27.263,-2.074 1.883,-1.764 -0.95,-4.588 -2.828,-2.828 a 18.21,18.21 0 0 1 -20.042,2.862 c -6.732,-3.362 -10.491,-10.586 -10.532,-17.961 -0.039,-7.089 3.334,-13.988 9.583,-17.57 a 20.1,20.1 0 0 1 19.62,0.129 17.181,17.181 0 0 1 7.92,20.308 c -0.792,2.456 3.069,3.507 3.857,1.064 z"
       id="path40" />
    <path
       class="c"
       d="m 146.01,61.269 c 0.471,0.033 -0.219,-0.087 0.2,0.022 0.178,0.047 0.358,0.084 0.534,0.141 0.1,0.033 0.51,0.228 0.207,0.073 0.165,0.084 0.329,0.17 0.486,0.267 0.072,0.045 0.464,0.329 0.2,0.117 a 5.192,5.192 0 0 1 0.412,0.373 4.848,4.848 0 0 1 0.372,0.413 c -0.234,-0.3 0.072,0.134 0.113,0.2 a 4.82,4.82 0 0 1 0.261,0.492 c -0.16,-0.356 0.034,0.139 0.057,0.22 a 4.123,4.123 0 0 1 0.123,0.55 c -0.057,-0.4 -0.006,0.159 0,0.242 0,0.2 -0.009,0.39 -0.02,0.585 -0.024,0.447 0.068,-0.153 -0.042,0.247 -0.089,0.326 -0.263,0.956 -0.321,1.091 a 6.862,6.862 0 0 1 -1.064,1.637 5.874,5.874 0 0 1 -1.734,1.338 7.976,7.976 0 0 1 -2.148,0.885 11.789,11.789 0 0 1 -1.275,0.283 q -0.213,0.033 0,0 c -0.106,0.012 -0.212,0.023 -0.318,0.031 -0.245,0.021 -0.489,0.032 -0.735,0.038 a 2,2 0 0 0 0,4 c 4.771,-0.117 9.592,-2.7 11.213,-7.38 a 7.458,7.458 0 0 0 -0.689,-6.514 7.567,7.567 0 0 0 -5.827,-3.355 2.01,2.01 0 0 0 -2,2 2.049,2.049 0 0 0 2,2 z"
       id="path41" />
    <path
       class="c"
       d="m 119.708,61.708 a 3.162,3.162 0 0 1 -1.29,2.382 2.459,2.459 0 0 1 -1.811,0.343 2.76,2.76 0 0 1 -1.993,-1.5 3.228,3.228 0 0 1 0.8,-3.714 2.555,2.555 0 0 1 3.474,0.191 2.845,2.845 0 0 1 0.82,2.298 z"
       id="path42" />
    <path
       class="c"
       d="m 131.867,64.192 a 3.172,3.172 0 0 1 -1.29,2.382 2.464,2.464 0 0 1 -1.812,0.342 2.756,2.756 0 0 1 -1.992,-1.5 3.228,3.228 0 0 1 0.8,-3.714 2.554,2.554 0 0 1 3.473,0.191 2.85,2.85 0 0 1 0.821,2.299 z"
       id="path43" />
    <path
       class="c"
       d="m 131.625,50.755 a 17.412,17.412 0 0 0 2.686,4.728 10.639,10.639 0 0 0 3.6,2.687 2.151,2.151 0 0 0 1.541,0.2 2,2 0 0 0 0.478,-3.655 10.46,10.46 0 0 1 -1.915,-1.148 l 0.4,0.313 a 8.786,8.786 0 0 1 -1.543,-1.558 l 0.312,0.4 A 15.01,15.01 0 0 1 135.4,49.5 l 0.2,0.478 c -0.04,-0.095 -0.08,-0.19 -0.119,-0.285 a 2.2,2.2 0 0 0 -0.919,-1.2 2,2 0 0 0 -2.737,0.717 1.929,1.929 0 0 0 -0.2,1.541 z"
       id="path44" />
    <path
       class="c"
       d="m 132.544,48.5 c -2.283,1.2 -6.187,2.135 -8.608,1.53 l 1.195,2.938 c 0.77,-1.376 1.61,-3.289 0.324,-4.65 -1.486,-1.573 -3.6,-0.465 -5.3,0 a 37.782,37.782 0 0 1 -12.112,1.136 c -2.572,-0.142 -2.564,3.858 0,4 a 43.455,43.455 0 0 0 8.119,-0.279 c 1.268,-0.168 2.527,-0.384 3.773,-0.675 q 0.969,-0.226 1.923,-0.5 0.535,-0.156 1.064,-0.329 c 0.142,-0.045 0.284,-0.092 0.425,-0.141 q 0.42,-0.146 0.01,0 l -0.882,-0.514 0.149,0.135 -0.514,-0.883 c -0.2,-0.478 0.174,-0.436 -0.053,-0.035 -0.134,0.236 -0.249,0.484 -0.382,0.721 a 2.022,2.022 0 0 0 1.195,2.938 14.539,14.539 0 0 0 5.9,-0.1 19.353,19.353 0 0 0 5.794,-1.833 c 2.278,-1.2 0.259,-4.655 -2.019,-3.454 z"
       id="path45" />
    <path
       class="c"
       d="m 112.787,69.306 c -1.89,0.015 -4.187,0.059 -5.767,1.219 a 6.268,6.268 0 0 0 -2.66,5.969 c 0.741,4.482 5.88,7.212 9.693,8.66 a 32.525,32.525 0 0 0 26.778,-1.979 c 2.247,-1.254 5.1,-2.8 4.956,-5.785 a 6.947,6.947 0 0 0 -4.552,-5.887 c -2.422,-0.885 -3.466,2.98 -1.063,3.857 0.773,0.282 1.963,1.688 1.493,2.52 -0.32,0.567 -1.449,1.015 -1.978,1.333 -0.737,0.443 -1.491,0.858 -2.263,1.235 a 28.8,28.8 0 0 1 -9.448,2.558 27.509,27.509 0 0 1 -9.826,-0.751 c -3.116,-0.8 -6.393,-2.064 -8.637,-4.458 -1.039,-1.109 -1.764,-2.386 -0.565,-3.676 0.888,-0.955 2.627,-0.8 3.839,-0.815 2.572,-0.02 2.578,-4.02 0,-4 z"
       id="path46" />
    <path
       class="c"
       d="m 133.677,84.732 a 52.821,52.821 0 0 1 4.587,8.589 c 0.092,0.2 0.175,0.417 0.282,0.606 0.493,0.869 1.707,-2.048 0.666,-1.807 -0.448,0.1 -0.888,0.27 -1.331,0.4 -0.934,0.267 -1.877,0.5 -2.825,0.72 q -1.4,0.318 -2.806,0.575 -0.72,0.132 -1.441,0.249 -0.3,0.049 -0.594,0.094 l -0.386,0.059 a 0.876,0.876 0 0 1 0.725,0.073 l 0.718,0.717 q 0.132,0.846 0.119,0.323 c 0,-0.121 0,-0.242 0,-0.363 0,-0.187 0,-0.373 0,-0.56 q -0.007,-0.685 -0.037,-1.369 -0.061,-1.485 -0.208,-2.965 A 39.291,39.291 0 0 0 130.255,84.436 2,2 0 1 0 126.4,85.5 q 0.184,0.744 0.323,1.5 c 0.046,0.243 0.088,0.488 0.128,0.733 0.025,0.158 0.05,0.316 0.074,0.475 0.01,0.07 0.084,0.595 0.061,0.417 -0.031,-0.231 0.022,0.183 0.028,0.231 0.021,0.168 0.04,0.336 0.059,0.5 0.031,0.272 0.059,0.545 0.085,0.817 q 0.094,0.975 0.152,1.953 c 0.07,1.181 -0.015,2.39 0.093,3.564 a 2.57,2.57 0 0 0 1.821,2.37 5.677,5.677 0 0 0 2.448,-0.108 60.425,60.425 0 0 0 7.8,-1.732 7.241,7.241 0 0 0 1.753,-0.627 2.547,2.547 0 0 0 1.141,-2.824 13.075,13.075 0 0 0 -0.828,-1.853 c -0.268,-0.586 -0.533,-1.175 -0.8,-1.762 a 39.033,39.033 0 0 0 -3.61,-6.44 A 2.044,2.044 0 0 0 134.4,82 a 2.024,2.024 0 0 0 -0.718,2.736 z"
       id="path47" />
    <path
       class="a"
       d="m 201.5,87.577 c -12.06,0 -20.4,8.7 -20.4,18.875 0,11.388 8.514,19.23 20.4,19.23 12.339,0 20.4,-7.915 20.4,-19.23 0,-10.247 -8.383,-18.875 -20.4,-18.875 z"
       id="path48" />
    <path
       class="a"
       d="m 201.5,67.037 c -9.449,0 -15.98,6.815 -15.98,14.789 0,8.922 6.672,15.066 15.98,15.066 9.668,0 15.98,-6.2 15.98,-15.066 0,-8.026 -6.565,-14.789 -15.98,-14.789 z"
       id="path49" />
    <path
       class="c"
       d="m 213.184,93.234 c 9.691,7.12 8.608,22.843 -2.1,28.344 -9.65,4.957 -23.845,1.382 -27.2,-9.673 a 16.971,16.971 0 0 1 5.985,-18.713 2.06,2.06 0 0 0 0.717,-2.737 2.015,2.015 0 0 0 -2.736,-0.717 20.955,20.955 0 0 0 -8.451,20.421 20.194,20.194 0 0 0 10.936,15.009 26.065,26.065 0 0 0 20.6,0.833 20.091,20.091 0 0 0 12.22,-13.619 21.119,21.119 0 0 0 -7.956,-22.6 2.014,2.014 0 0 0 -2.736,0.718 2.045,2.045 0 0 0 0.717,2.736 z"
       id="path50" />
    <path
       class="c"
       d="m 201.5,65.037 c -7.514,0.072 -14.558,4.245 -17.1,11.512 a 16.91,16.91 0 0 0 5.756,18.851 c 5.832,4.344 14.65,4.634 20.972,1.192 6.244,-3.4 9.211,-10.612 8.112,-17.5 -1.372,-8.61 -9.389,-13.967 -17.74,-14.047 -2.575,-0.025 -2.577,3.975 0,4 5.695,0.055 11.383,3.07 13.294,8.7 1.7,5.012 0.251,11.091 -4.041,14.353 -4.464,3.393 -11.442,3.748 -16.386,1.223 a 12.745,12.745 0 0 1 -6.725,-13.306 c 1.033,-6.816 7.279,-10.906 13.858,-10.969 2.572,-0.034 2.579,-4.034 0,-4.009 z"
       id="path51" />
    <path
       class="a"
       d="m 261.586,68.409 a 5.747,5.747 0 0 0 -5.861,5.824 5.652,5.652 0 0 0 5.861,5.934 5.592,5.592 0 0 0 5.861,-5.934 5.741,5.741 0 0 0 -5.861,-5.824 z"
       id="path52" />
    <path
       class="a"
       d="m 200.6,2 a 5.747,5.747 0 0 0 -5.86,5.825 5.651,5.651 0 0 0 5.86,5.933 5.592,5.592 0 0 0 5.861,-5.933 A 5.742,5.742 0 0 0 200.6,2 Z"
       id="path53" />
    <path
       class="a"
       d="m 61.551,27.512 a 5.747,5.747 0 0 0 -5.861,5.825 5.652,5.652 0 0 0 5.861,5.933 5.592,5.592 0 0 0 5.861,-5.933 5.742,5.742 0 0 0 -5.861,-5.825 z"
       id="path54" />
    <path
       class="c"
       d="m 261.586,66.409 a 7.869,7.869 0 0 0 -7.512,5.481 8.068,8.068 0 0 0 2.56,8.618 8.385,8.385 0 0 0 9.077,0.611 7.987,7.987 0 0 0 3.6,-8.273 7.807,7.807 0 0 0 -7.729,-6.437 2,2 0 0 0 0,4 c 0.17,0 0.34,0.016 0.51,0.02 0.534,0.012 -0.388,-0.106 0.122,0.014 0.259,0.061 0.518,0.113 0.772,0.2 0.1,0.032 0.195,0.069 0.293,0.105 -0.468,-0.169 0,0.006 0.082,0.051 a 6.178,6.178 0 0 1 0.766,0.479 c -0.418,-0.3 0.168,0.173 0.266,0.275 0.098,0.102 0.2,0.22 0.3,0.329 -0.3,-0.33 -0.07,-0.1 0,0.009 0.146,0.231 0.278,0.465 0.413,0.7 0.051,0.089 0.139,0.348 -0.018,-0.069 0.071,0.188 0.14,0.375 0.2,0.569 a 6.979,6.979 0 0 1 0.163,0.743 c -0.092,-0.538 0,0.271 0,0.4 0,0.268 -0.021,0.532 -0.042,0.8 0.041,-0.524 0,-0.029 -0.021,0.076 q -0.051,0.256 -0.123,0.509 c -0.034,0.117 -0.07,0.233 -0.11,0.349 -0.04,0.116 -0.257,0.511 -0.015,0.053 -0.11,0.208 -0.21,0.417 -0.336,0.617 -0.06,0.1 -0.139,0.187 -0.194,0.286 -0.133,0.24 0.322,-0.34 0.012,-0.028 -0.111,0.112 -0.419,0.55 -0.59,0.573 l 0.188,-0.143 c -0.074,0.055 -0.15,0.108 -0.227,0.159 -0.077,0.051 -0.156,0.1 -0.236,0.148 -0.122,0.071 -0.249,0.131 -0.372,0.2 -0.394,0.219 0.29,-0.063 0.017,0 -0.273,0.063 -0.513,0.176 -0.776,0.237 -0.1,0.023 -0.2,0.039 -0.3,0.062 -0.226,0.036 -0.2,0.035 0.07,0 -0.106,0.012 -0.211,0.021 -0.318,0.028 a 7.333,7.333 0 0 1 -0.812,0.009 c -0.158,-0.008 -0.315,-0.022 -0.472,-0.038 0.07,0.007 0.432,0.084 0.075,0 -0.268,-0.062 -0.534,-0.119 -0.8,-0.206 -0.116,-0.039 -0.229,-0.082 -0.343,-0.126 0.5,0.194 0,-0.017 -0.107,-0.075 a 6.669,6.669 0 0 1 -0.654,-0.42 c 0.439,0.311 -0.124,-0.138 -0.226,-0.243 A 2.806,2.806 0 0 0 258.503,76.8 c -0.209,-0.165 0.248,0.387 0.011,0.014 -0.155,-0.243 -0.3,-0.488 -0.437,-0.739 -0.237,-0.42 0.121,0.4 -0.029,-0.06 -0.03,-0.095 -0.067,-0.188 -0.1,-0.283 a 7.634,7.634 0 0 1 -0.211,-0.894 c 0.013,0.07 0.035,0.436 0.012,0.058 -0.01,-0.163 -0.024,-0.326 -0.028,-0.489 0,-0.134 0,-0.268 0,-0.4 0,-0.132 0.086,-0.693 0,-0.16 a 6.579,6.579 0 0 1 0.206,-0.886 c 0.045,-0.143 0.1,-0.283 0.151,-0.423 -0.119,0.308 -0.054,0.133 0.049,-0.063 a 6.232,6.232 0 0 1 0.473,-0.751 c -0.3,0.412 0,0.021 0.065,-0.051 q 0.15,-0.164 0.314,-0.315 c 0.069,-0.064 0.46,-0.368 0.052,-0.069 0.122,-0.089 0.245,-0.174 0.372,-0.254 0.127,-0.08 0.26,-0.157 0.394,-0.227 0.183,-0.095 0.4,-0.167 0.082,-0.053 a 7.033,7.033 0 0 1 0.909,-0.272 c 0.091,-0.019 0.614,-0.073 0.115,-0.031 0.227,-0.019 0.451,-0.032 0.679,-0.035 a 2,2 0 0 0 0,-4 z"
       id="path55" />
    <path
       class="c"
       d="m 200.6,0 a 7.873,7.873 0 0 0 -7.512,5.481 8.071,8.071 0 0 0 2.56,8.619 8.389,8.389 0 0 0 9.077,0.611 7.988,7.988 0 0 0 3.6,-8.273 A 7.807,7.807 0 0 0 200.6,0 a 2.02,2.02 0 0 0 -2,2 2.037,2.037 0 0 0 2,2 c 0.17,0 0.34,0.016 0.51,0.02 0.534,0.012 -0.388,-0.106 0.122,0.014 0.26,0.061 0.518,0.113 0.772,0.2 0.1,0.032 0.195,0.07 0.293,0.105 -0.467,-0.169 0,0.006 0.082,0.052 a 5.882,5.882 0 0 1 0.766,0.479 c -0.417,-0.3 0.168,0.173 0.266,0.274 0.098,0.101 0.2,0.22 0.3,0.33 -0.3,-0.33 -0.07,-0.1 0,0.008 0.146,0.231 0.278,0.466 0.414,0.7 0.051,0.089 0.138,0.347 -0.019,-0.07 0.071,0.188 0.14,0.376 0.2,0.569 a 6.758,6.758 0 0 1 0.163,0.744 c -0.091,-0.539 0,0.27 0,0.4 0,0.267 -0.021,0.532 -0.042,0.8 0.041,-0.524 0,-0.029 -0.021,0.077 q -0.051,0.257 -0.123,0.508 c -0.033,0.117 -0.07,0.234 -0.11,0.349 -0.04,0.115 -0.257,0.511 -0.015,0.054 -0.11,0.207 -0.21,0.417 -0.336,0.616 -0.06,0.1 -0.139,0.187 -0.194,0.286 -0.133,0.24 0.322,-0.34 0.012,-0.028 -0.111,0.112 -0.419,0.55 -0.59,0.573 l 0.188,-0.143 c -0.074,0.055 -0.15,0.108 -0.227,0.159 -0.077,0.051 -0.156,0.1 -0.236,0.148 -0.122,0.072 -0.249,0.131 -0.372,0.2 -0.394,0.219 0.291,-0.062 0.017,0 -0.274,0.062 -0.513,0.176 -0.776,0.237 -0.1,0.023 -0.2,0.039 -0.3,0.062 -0.225,0.037 -0.2,0.035 0.07,0 -0.106,0.012 -0.211,0.021 -0.317,0.028 a 7.351,7.351 0 0 1 -0.813,0.009 c -0.158,-0.007 -0.314,-0.022 -0.472,-0.038 0.07,0.007 0.432,0.085 0.075,0 -0.268,-0.062 -0.534,-0.119 -0.8,-0.206 -0.115,-0.039 -0.229,-0.081 -0.343,-0.126 0.5,0.194 0,-0.017 -0.107,-0.075 a 6.722,6.722 0 0 1 -0.654,-0.42 c 0.439,0.311 -0.124,-0.137 -0.226,-0.243 a 2.792,2.792 0 0 0 -0.236,-0.261 c -0.209,-0.165 0.249,0.388 0.011,0.015 -0.155,-0.244 -0.3,-0.489 -0.436,-0.74 -0.237,-0.42 0.12,0.4 -0.03,-0.06 -0.03,-0.1 -0.066,-0.187 -0.1,-0.282 a 7.65,7.65 0 0 1 -0.211,-0.895 c 0.013,0.071 0.035,0.437 0.012,0.058 -0.01,-0.163 -0.024,-0.325 -0.028,-0.489 0,-0.134 0,-0.267 0,-0.4 0,-0.133 0.085,-0.692 -0.006,-0.16 a 6.53,6.53 0 0 1 0.206,-0.885 c 0.045,-0.144 0.1,-0.284 0.152,-0.424 -0.12,0.308 -0.055,0.134 0.048,-0.062 a 6.291,6.291 0 0 1 0.473,-0.752 c -0.3,0.412 0,0.022 0.065,-0.05 0.1,-0.109 0.205,-0.215 0.314,-0.316 0.069,-0.064 0.46,-0.368 0.053,-0.068 0.121,-0.089 0.244,-0.175 0.371,-0.255 0.127,-0.08 0.26,-0.156 0.394,-0.226 0.183,-0.1 0.4,-0.168 0.083,-0.053 A 6.675,6.675 0 0 1 199.8,4.075 c 0.091,-0.02 0.614,-0.073 0.116,-0.032 0.226,-0.019 0.451,-0.032 0.678,-0.035 a 2.024,2.024 0 0 0 2,-2 A 2.033,2.033 0 0 0 200.6,0 Z"
       id="path56" />
    <path
       class="c"
       d="m 61.551,25.512 a 7.872,7.872 0 0 0 -7.512,5.481 8.069,8.069 0 0 0 2.56,8.619 8.389,8.389 0 0 0 9.077,0.611 7.988,7.988 0 0 0 3.6,-8.273 7.807,7.807 0 0 0 -7.729,-6.438 2,2 0 0 0 0,4 c 0.17,0 0.34,0.016 0.51,0.02 0.534,0.012 -0.388,-0.106 0.122,0.014 0.259,0.061 0.518,0.114 0.772,0.2 0.1,0.033 0.2,0.07 0.293,0.105 -0.468,-0.169 0,0.006 0.082,0.052 a 5.95,5.95 0 0 1 0.766,0.479 c -0.418,-0.3 0.167,0.173 0.266,0.274 0.099,0.101 0.2,0.22 0.3,0.33 -0.3,-0.33 -0.07,-0.1 0,0.008 0.146,0.231 0.278,0.466 0.413,0.7 0.051,0.089 0.139,0.348 -0.018,-0.07 0.071,0.188 0.14,0.376 0.2,0.569 a 7,7 0 0 1 0.163,0.744 c -0.092,-0.539 0,0.271 0,0.4 0,0.267 -0.021,0.532 -0.042,0.8 0.041,-0.524 0,-0.029 -0.021,0.077 q -0.051,0.257 -0.123,0.508 c -0.034,0.117 -0.07,0.234 -0.11,0.349 -0.04,0.115 -0.257,0.511 -0.015,0.054 -0.11,0.207 -0.21,0.417 -0.336,0.616 -0.061,0.1 -0.139,0.187 -0.194,0.286 -0.133,0.24 0.322,-0.34 0.012,-0.028 -0.111,0.112 -0.419,0.55 -0.59,0.573 l 0.188,-0.142 c -0.074,0.055 -0.15,0.107 -0.227,0.158 -0.077,0.051 -0.156,0.1 -0.236,0.148 -0.122,0.072 -0.249,0.131 -0.372,0.2 -0.394,0.219 0.29,-0.062 0.017,0 -0.273,0.062 -0.513,0.176 -0.776,0.237 -0.1,0.023 -0.2,0.039 -0.3,0.062 -0.226,0.037 -0.2,0.035 0.07,0 -0.106,0.012 -0.212,0.021 -0.318,0.028 a 7.333,7.333 0 0 1 -0.812,0.009 c -0.158,-0.007 -0.315,-0.022 -0.472,-0.038 0.07,0.007 0.432,0.085 0.075,0 -0.268,-0.061 -0.534,-0.119 -0.8,-0.206 -0.116,-0.039 -0.229,-0.081 -0.343,-0.126 0.5,0.194 0,-0.017 -0.107,-0.075 a 6.488,6.488 0 0 1 -0.654,-0.42 c 0.438,0.311 -0.124,-0.137 -0.226,-0.243 a 2.939,2.939 0 0 0 -0.236,-0.261 c -0.209,-0.165 0.248,0.388 0.011,0.015 -0.155,-0.244 -0.3,-0.489 -0.437,-0.739 -0.237,-0.421 0.121,0.4 -0.029,-0.061 -0.03,-0.095 -0.067,-0.187 -0.1,-0.282 a 7.65,7.65 0 0 1 -0.211,-0.9 c 0.013,0.071 0.035,0.437 0.012,0.058 -0.01,-0.163 -0.024,-0.325 -0.028,-0.489 0,-0.134 0,-0.267 0,-0.4 0,-0.133 0.086,-0.692 -0.005,-0.16 a 6.53,6.53 0 0 1 0.206,-0.885 c 0.045,-0.144 0.1,-0.284 0.151,-0.424 -0.119,0.308 -0.054,0.134 0.049,-0.062 a 6.244,6.244 0 0 1 0.473,-0.752 c -0.3,0.412 0,0.022 0.065,-0.05 0.1,-0.109 0.2,-0.215 0.313,-0.315 0.07,-0.065 0.461,-0.369 0.053,-0.069 0.122,-0.089 0.245,-0.175 0.372,-0.255 0.127,-0.08 0.26,-0.156 0.394,-0.226 0.183,-0.095 0.4,-0.168 0.082,-0.053 a 6.731,6.731 0 0 1 0.909,-0.272 c 0.091,-0.02 0.614,-0.073 0.115,-0.032 0.227,-0.019 0.451,-0.032 0.679,-0.035 a 2,2 0 0 0 0,-4 z"
       id="path57" />
  </g>
</svg>
