<?xml version="1.0" encoding="UTF-8" standalone="no"?>
<svg
   width="47.606483"
   height="35.704948"
   viewBox="0 0 47.606483 35.704948"
   fill="none"
   version="1.1"
   id="svg5"
   sodipodi:docname="Gmail_Logo.svg"
   inkscape:version="1.4 (86a8ad7, 2024-10-11)"
   xmlns:inkscape="http://www.inkscape.org/namespaces/inkscape"
   xmlns:sodipodi="http://sodipodi.sourceforge.net/DTD/sodipodi-0.dtd"
   xmlns="http://www.w3.org/2000/svg"
   xmlns:svg="http://www.w3.org/2000/svg">
  <sodipodi:namedview
     id="namedview5"
     pagecolor="#ffffff"
     bordercolor="#000000"
     borderopacity="0.25"
     inkscape:showpageshadow="2"
     inkscape:pageopacity="0.0"
     inkscape:pagecheckerboard="0"
     inkscape:deskcolor="#d1d1d1"
     inkscape:zoom="7.73"
     inkscape:cx="74.191462"
     inkscape:cy="50"
     inkscape:window-width="1920"
     inkscape:window-height="991"
     inkscape:window-x="-9"
     inkscape:window-y="-9"
     inkscape:window-maximized="1"
     inkscape:current-layer="svg5">
    <inkscape:page
       x="0"
       y="0"
       width="47.606483"
       height="35.704948"
       id="page2"
       margin="0"
       bleed="0" />
  </sodipodi:namedview>
  <g
     clip-path="url(#clip0_1:194)"
     id="g5"
     style="fill:#ffffff;fill-opacity:1"
     inkscape:export-filename="..\OneDrive\Documents\Santhosh\Projects\Portfolio\images\g5.svg"
     inkscape:export-xdpi="54.000137"
     inkscape:export-ydpi="54.000137"
     transform="scale(0.35704953)">
    <path
       d="M 9.09091,100 H 30.303 V 48.4848 L 0,25.7576 V 90.9091 C 0,95.9394 4.07576,100 9.09091,100 Z"
       fill="#4285F4"
       id="path1"
       style="fill:#ffffff;fill-opacity:1" />
    <path
       d="m 103.03,100 h 21.212 c 5.031,0 9.091,-4.0758 9.091,-9.0909 V 25.7576 L 103.03,48.4848"
       fill="#34A853"
       id="path2"
       style="fill:#ffffff;fill-opacity:1" />
    <path
       d="M 103.03,9.09091 V 48.4848 L 133.333,25.7576 V 13.6364 C 133.333,2.39394 120.5,-4.01515 111.515,2.72727"
       fill="#FBBC04"
       id="path3"
       style="fill:#ffffff;fill-opacity:1" />
    <path
       d="M 30.303,48.4848 V 9.09091 L 66.6667,36.3636 103.03,9.09091 V 48.4848 L 66.6667,75.7576"
       fill="#EA4335"
       id="path4"
       style="fill:#ffffff;fill-opacity:1" />
    <path
       d="M 0,13.6364 V 25.7576 L 30.303,48.4848 V 9.09091 L 21.8182,2.72727 C 12.8182,-4.01515 0,2.39394 0,13.6364"
       fill="#C5221F"
       id="path5"
       style="fill:#ffffff;fill-opacity:1" />
  </g>
  <defs
     id="defs5">
    <clipPath
       id="clip0_1:194">
      <rect
         width="133.33299"
         height="100"
         fill="#ffffff"
         id="rect5"
         x="0"
         y="0" />
    </clipPath>
  </defs>
</svg>
