<?xml version="1.0" encoding="UTF-8" standalone="no"?>
<!-- Uploaded to: SVG Repo, www.svgrepo.com, Generator: SVG Repo Mixer Tools -->

<svg
   version="1.0"
   id="Layer_1"
   width="42.173355"
   height="56.231129"
   viewBox="0 0 3.3738684 4.4984903"
   enable-background="new 0 0 64 64"
   xml:space="preserve"
   sodipodi:docname="location.svg"
   inkscape:version="1.4 (86a8ad7, 2024-10-11)"
   xmlns:inkscape="http://www.inkscape.org/namespaces/inkscape"
   xmlns:sodipodi="http://sodipodi.sourceforge.net/DTD/sodipodi-0.dtd"
   xmlns="http://www.w3.org/2000/svg"
   xmlns:svg="http://www.w3.org/2000/svg"><defs
   id="defs1" /><sodipodi:namedview
   id="namedview1"
   pagecolor="#ffffff"
   bordercolor="#000000"
   borderopacity="0.25"
   inkscape:showpageshadow="2"
   inkscape:pageopacity="0.0"
   inkscape:pagecheckerboard="0"
   inkscape:deskcolor="#d1d1d1"
   inkscape:zoom="0.96625"
   inkscape:cx="399.48254"
   inkscape:cy="482.79431"
   inkscape:window-width="1920"
   inkscape:window-height="991"
   inkscape:window-x="-9"
   inkscape:window-y="-9"
   inkscape:window-maximized="1"
   inkscape:current-layer="Layer_1"><inkscape:page
     x="0"
     y="0"
     width="3.3738685"
     height="4.4984903"
     id="page2"
     margin="0"
     bleed="0" /></sodipodi:namedview>
<path
   fill="#231F20"
   d="M 1.6869339,0 C 0.75532468,0 -1.9450967e-8,0.75532472 -1.9450967e-8,1.6869341 -1.9450967e-8,2.053772 0.12026428,2.3903855 0.32016598,2.6660587 c 0.00359,0.0066 0.00415,0.013987 0.00823,0.020313 l 1.12462272,1.686934 c 0.052154,0.078232 0.1400155,0.1251846 0.2339215,0.1251846 0.093906,0 0.1817676,-0.046953 0.2339217,-0.1251846 L 3.04548,2.6863719 c 0.0042,-0.00633 0.0046,-0.013706 0.0082,-0.020313 C 3.253604,2.3903855 3.373869,2.053772 3.373869,1.6869341 3.373869,0.75532472 2.618543,0 1.6869339,0 Z m 0,2.2492454 c -0.3105363,0 -0.5623112,-0.2517749 -0.5623112,-0.5623113 0,-0.3105365 0.2517749,-0.5623114 0.5623112,-0.5623114 0.3105367,0 0.5623111,0.2517749 0.5623111,0.5623114 0,0.3105364 -0.2517744,0.5623113 -0.5623111,0.5623113 z"
   id="path1"
   style="fill:#ffffff;stroke-width:0.0702889"
   inkscape:export-filename="location.png"
   inkscape:export-xdpi="96"
   inkscape:export-ydpi="96" />
</svg>
