<?xml version="1.0" encoding="UTF-8" standalone="no"?>
<!-- Uploaded to: SVG Repo, www.svgrepo.com, Generator: SVG Repo Mixer Tools -->

<svg
   width="41.569637"
   height="41.569778"
   viewBox="0 0 1.2470891 1.2470934"
   fill="none"
   version="1.1"
   id="svg1"
   sodipodi:docname="phone.svg"
   xmlns:inkscape="http://www.inkscape.org/namespaces/inkscape"
   xmlns:sodipodi="http://sodipodi.sourceforge.net/DTD/sodipodi-0.dtd"
   xmlns="http://www.w3.org/2000/svg"
   xmlns:svg="http://www.w3.org/2000/svg">
  <defs
     id="defs1" />
  <sodipodi:namedview
     id="namedview1"
     pagecolor="#ffffff"
     bordercolor="#000000"
     borderopacity="0.25"
     inkscape:showpageshadow="2"
     inkscape:pageopacity="0.0"
     inkscape:pagecheckerboard="0"
     inkscape:deskcolor="#d1d1d1">
    <inkscape:page
       x="0"
       y="5.9960134e-16"
       width="1.2470891"
       height="1.2470934"
       id="page2"
       margin="0"
       bleed="0" />
  </sodipodi:namedview>
  <path
     fill-rule="evenodd"
     clip-rule="evenodd"
     d="M 0.00878519,0.14978187 C 0.02121619,0.05796677 0.10223399,1.7098984e-7 0.18644239,1.7098984e-7 h 0.1601537 c 0.080518,0 0.1520021,0.0515229990102 0.1774621,0.12790899901016 l 0.065441,0.1963111 c 0.028122,0.084378 -0.021537,0.1748401 -0.1078221,0.1964147 -0.021098,0.00528 -0.028376,0.031545 -0.012998,0.046928 l 0.2108473,0.2108454 c 0.015383,0.015383 0.041653,0.0081 0.046928,-0.012995 0.021575,-0.086286 0.1120385,-0.1359452 0.1964166,-0.1078233 l 0.19631061,0.065441 c 0.076384,0.025459 0.1279077,0.096942 0.1279077,0.1774608 V 1.0606493 c 0,0.084204 -0.057965,0.1652269 -0.1497817,0.1776541 -0.042806,0.0058 -0.086479,0.00879 -0.13081341,0.00879 C 0.43271449,1.2470895 8.8806463e-8,0.81437437 8.8806463e-8,0.28059527 c 0,-0.044335 0.0029900011935,-0.088005 0.0087900011935,-0.1308134 z"
     fill="#323232"
     id="path1"
     style="fill:#ffffff;stroke-width:0.0623545"
     inkscape:export-filename="phone.svg"
     inkscape:export-xdpi="96"
     inkscape:export-ydpi="96" />
</svg>
