<?xml version="1.0" encoding="UTF-8" standalone="no"?>
<!-- Created with Inkscape (http://www.inkscape.org/) -->

<svg
   width="7.1108303mm"
   height="6.514678mm"
   viewBox="0 0 7.1108303 6.514678"
   version="1.1"
   id="svg1"
   xml:space="preserve"
   inkscape:version="1.4 (86a8ad7, 2024-10-11)"
   sodipodi:docname="TenthPlanet.svg"
   xmlns:inkscape="http://www.inkscape.org/namespaces/inkscape"
   xmlns:sodipodi="http://sodipodi.sourceforge.net/DTD/sodipodi-0.dtd"
   xmlns="http://www.w3.org/2000/svg"
   xmlns:svg="http://www.w3.org/2000/svg"><sodipodi:namedview
     id="namedview1"
     pagecolor="#ffffff"
     bordercolor="#000000"
     borderopacity="0.25"
     inkscape:showpageshadow="2"
     inkscape:pageopacity="0.0"
     inkscape:pagecheckerboard="0"
     inkscape:deskcolor="#d1d1d1"
     inkscape:document-units="mm"
     inkscape:zoom="11.01807"
     inkscape:cx="170.31113"
     inkscape:cy="476.17232"
     inkscape:window-width="1920"
     inkscape:window-height="991"
     inkscape:window-x="-9"
     inkscape:window-y="-9"
     inkscape:window-maximized="1"
     inkscape:current-layer="layer1"><inkscape:page
       x="0"
       y="8.0241596e-16"
       width="7.1108303"
       height="6.5146785"
       id="page2"
       margin="0"
       bleed="0" /></sodipodi:namedview><defs
     id="defs1" /><g
     inkscape:label="Layer 1"
     inkscape:groupmode="layer"
     id="layer1"
     transform="translate(-41.902936,-121.59139)"><path
       style="fill:#f16523;fill-opacity:1;stroke-width:0.20086"
       d="m 44.734183,126.28284 -0.76088,0.41119 a 0.62557036,0.63776992 48.017517 0 1 -0.213,0.44127 0.62557036,0.63776992 48.017517 0 1 -0.89278,-0.0387 0.62557036,0.63776992 48.017517 0 1 0.05567,-0.89159 0.62557036,0.63776992 48.017517 0 1 0.458921,-0.16165 l 0.489604,-0.71519 a 1.4234918,1.451252 48.017517 0 0 -1.482283,0.28368 1.4234918,1.451252 48.017517 0 0 -0.126393,2.02869 1.4234918,1.451252 48.017517 0 0 2.031015,0.0879 1.4234918,1.451252 48.017517 0 0 0.440121,-1.44563 z"
       id="path4" /><path
       style="fill:#236ab4;fill-opacity:1;stroke-width:0.20086"
       d="m 46.182525,126.28284 0.76088,0.41119 a 0.63776992,0.62557036 41.982483 0 0 0.213,0.44127 0.63776992,0.62557036 41.982483 0 0 0.89278,-0.0387 0.63776992,0.62557036 41.982483 0 0 -0.05567,-0.89159 0.63776992,0.62557036 41.982483 0 0 -0.458921,-0.16165 l -0.489604,-0.71519 a 1.451252,1.4234918 41.982483 0 1 1.482283,0.28368 1.451252,1.4234918 41.982483 0 1 0.126393,2.02869 1.451252,1.4234918 41.982483 0 1 -2.031015,0.0879 1.451252,1.4234918 41.982483 0 1 -0.440121,-1.44563 z"
       id="path7" /><path
       style="fill:#3fab51;fill-opacity:1;stroke-width:0.20086"
       d="m 44.82709,124.34248 0.195365,-0.84252 a 0.63776992,0.62557036 89.459965 0 1 -0.189808,-0.45174 0.63776992,0.62557036 89.459965 0 1 0.619912,-0.64362 0.63776992,0.62557036 89.459965 0 1 0.631508,0.63184 0.63776992,0.62557036 89.459965 0 1 -0.182568,0.451 l 0.212069,0.84038 a 1.451252,1.4234918 89.459965 0 0 0.768422,-1.29891 1.451252,1.4234918 89.459965 0 0 -1.437094,-1.43746 1.451252,1.4234918 89.459965 0 0 -1.410154,1.46431 1.451252,1.4234918 89.459965 0 0 0.792373,1.28673 z"
       id="path6" /></g></svg>
