<?xml version="1.0" encoding="UTF-8" standalone="no"?>
<svg
   viewBox="0 0 6.0725213 11.767514"
   width="18.978008"
   height="36.777618"
   version="1.1"
   id="svg2"
   sodipodi:docname="udemy-3.svg"
   xmlns:inkscape="http://www.inkscape.org/namespaces/inkscape"
   xmlns:sodipodi="http://sodipodi.sourceforge.net/DTD/sodipodi-0.dtd"
   xmlns="http://www.w3.org/2000/svg"
   xmlns:svg="http://www.w3.org/2000/svg">
  <defs
     id="defs2" />
  <sodipodi:namedview
     id="namedview2"
     pagecolor="#ffffff"
     bordercolor="#000000"
     borderopacity="0.25"
     inkscape:showpageshadow="2"
     inkscape:pageopacity="0.0"
     inkscape:pagecheckerboard="0"
     inkscape:deskcolor="#d1d1d1">
    <inkscape:page
       x="0"
       y="0"
       width="6.0725212"
       height="11.767514"
       id="page2"
       margin="0"
       bleed="0" />
  </sodipodi:namedview>
  <path
     d="M 6.0720798,3.488381 3.0355985,1.7362254 0,3.488381 V 1.7362254 L 3.0360399,-0.01593023 6.0725211,1.7362254 V 3.488381 Z"
     fill="#a435f0"
     id="path1"
     style="stroke-width:0.0147116" />
  <path
     d="M 0,4.9598386 H 1.5904747 V 8.822231 c 0,0.9978901 0.7454385,1.484404 1.4455652,1.484404 0.7061584,0 1.4461536,-0.4994601 1.4461536,-1.4977916 V 4.9598386 h 1.5903276 v 3.9544872 c 0,0.9191829 -0.2890836,1.6285782 -0.8673979,2.1149452 -0.5786086,0.486072 -1.301244,0.722782 -2.1824709,0.722782 -0.8803442,0 -1.603421,-0.236269 -2.1682006,-0.722782 C 0.28908361,10.543345 0,9.8602839 0,8.9536059 Z"
     id="path2"
     style="stroke-width:0.0147116"
     inkscape:export-filename="Udemy.png"
     inkscape:export-xdpi="96"
     inkscape:export-ydpi="96" />
</svg>
